<svg width="785" height="190" viewBox="0 0 785 190" fill="none" xmlns="http://www.w3.org/2000/svg">
<path opacity="0.5" fill-rule="evenodd" clip-rule="evenodd" d="M0.67041 78.2911L5.98185 58.0956L43.3893 36.5778V63.5378L0.67041 90.2941V78.2911Z" fill="#1C60DD"/>
<path opacity="0.7" fill-rule="evenodd" clip-rule="evenodd" d="M18.374 79.0016L60.4978 52.9761V74.3488C60.4978 74.3488 59.8577 81.4033 56.7781 82.7171C54.5014 83.6404 18.3853 104.874 18.3853 104.874L18.374 79.0016Z" fill="#1C60DD"/>
<path opacity="0.9" fill-rule="evenodd" clip-rule="evenodd" d="M41.3154 91.6276L78.7622 69.6998V91.0697C78.7622 91.0697 78.7622 96.9777 75.0425 99.0559C72.6423 100.331 41.3239 118.442 41.3239 118.442L41.3154 91.6276Z" fill="#1C60DD"/>
<path opacity="0.5" fill-rule="evenodd" clip-rule="evenodd" d="M56.835 28.9434L77.4238 15.7549V42.7009L56.8546 55.2087L56.835 28.9434Z" fill="#1C60DD"/>
<path opacity="0.7" fill-rule="evenodd" clip-rule="evenodd" d="M73.6002 44.9991L94.2901 32.8567V60.7511L73.5918 72.6955L73.6002 44.9991Z" fill="#1C60DD"/>
<path opacity="0.5" fill-rule="evenodd" clip-rule="evenodd" d="M89.4619 8.56637L103.552 0V18.5832C103.552 18.5832 103.552 27.8804 99.8322 29.741C99.1163 30.1176 89.5377 35.6574 89.5377 35.6574L89.4619 8.56637Z" fill="#1C60DD"/>
<path opacity="0.9" fill-rule="evenodd" clip-rule="evenodd" d="M89.8355 62.9831L103.872 54.6148L103.549 75.968C103.549 75.968 103.872 81.5998 99.8296 84.3363C98.8976 85.1592 89.3386 89.7841 89.5071 89.8761C89.6755 89.9682 89.7794 62.2272 89.8355 62.9831Z" fill="#1C60DD"/>
<path opacity="0.7" fill-rule="evenodd" clip-rule="evenodd" d="M106.36 26.0175L117.59 18.6311C117.59 18.6311 117.702 29.7108 117.59 37.2171C117.507 39.4972 116.972 41.7385 116.014 43.8122C115.057 45.886 113.697 47.7513 112.011 49.301C112.011 49.301 106.203 52.8938 106.38 52.9942C106.557 53.0946 106.36 26.0175 106.36 26.0175Z" fill="#1C60DD"/>
<path fill-rule="evenodd" clip-rule="evenodd" d="M43.3902 36.5579C43.2162 36.9205 9.04834 53.7688 3.86884 59.5485C6.51053 57.3337 1.62299 61.7354 1.06152 68.3659L2.68696 130.679C2.68696 130.679 0.0761539 138.988 12.9112 146.319C22.0631 151.546 74.9978 183.882 81.4967 186.92C87.9957 189.958 89.6717 185.157 89.6717 185.157V124.674C89.5313 124.509 91.6115 115.117 80.4721 108.035C78.3329 106.188 9.74175 75.1442 6.82775 65.37C3.69759 54.8734 43.3902 39.272 43.3902 36.5579Z" fill="white"/>
<path fill-rule="evenodd" clip-rule="evenodd" d="M86.4778 124.13L89.8176 121.728V186.164C89.8176 186.164 88.2066 189.386 86.4778 189.693C86.2729 189.587 86.4778 124.13 86.4778 124.13Z" fill="#C0C9D7"/>
<path d="M4.47573 67.4902C4.95034 68.2393 5.49453 68.9425 6.10117 69.5907C5.4148 68.8377 4.83834 67.9926 4.38871 67.0802C0.346171 56.7202 29.6546 45.0715 41.8664 37.2889C41.8664 37.2889 12.2239 51.914 6.34821 57.0159C1.15468 61.5236 0.781305 64.2489 0.781305 64.2489L0.155273 68.0565C0.28441 66.2099 0.32652 64.5613 0.781305 64.2489C0.725159 64.5697 4.42801 67.0076 4.47573 67.4902Z" fill="#1C60DD"/>
<path d="M77.3467 110.596C74.938 108.574 44.1979 94.6073 22.9409 81.9767C24.2042 82.7689 25.3299 83.4635 26.2142 84.0437L76.5663 184.653C77.6274 185.211 78.4275 185.66 79.0395 185.945L86.4789 189.638V125.009C86.3863 124.937 87.22 116.013 77.3467 110.596Z" fill="#1C60DD"/>
<path opacity="0.3" d="M2.2958 139.062C1.14502 136.706 0.370472 134.186 0 131.592C0.113008 134.236 0.903227 136.807 2.2958 139.062Z" fill="url(#paint0_linear_595_428)"/>
<path d="M22.9415 81.9759C15.4179 77.5519 9.18567 73.1948 6.09762 69.5936C5.49181 68.9444 4.94856 68.2403 4.47499 67.4904C4.41884 67.0078 0.825478 64.2295 0.920927 63.8976C0.466142 64.2128 0.176988 66.1682 0.0478516 68.026L0.146108 131.578C0.511059 136.284 0.87601 136.465 2.13369 139.062C3.97248 141.893 4.88205 142.967 8.161 145.874C15.8587 150.546 63.5213 177.634 76.6343 184.647L26.2148 84.015L22.9415 81.9759Z" fill="#1C60DD"/>
<path opacity="0.2" d="M22.8573 81.9314C15.3337 77.5073 9.10145 73.1502 6.0134 69.5491C5.43445 68.8972 4.91932 68.192 4.47499 67.443C4.41884 66.9633 0.811442 64.185 0.920927 63.853C0.696342 64.0678 0.278052 66.556 0.148915 68.411L0.0478516 131.765C0.230327 135.723 1.00795 136.819 2.15334 139.179C3.79281 141.893 5.90111 143.921 8.2789 145.829C15.9794 150.501 63.4399 177.59 76.5528 184.602L26.1306 83.9705L22.8573 81.9314Z" fill="url(#paint1_linear_595_428)"/>
<path fill-rule="evenodd" clip-rule="evenodd" d="M75.6387 136.78L65.1759 130.364C63.3174 129.293 61.5264 129.985 62.4444 131.879V149.143C62.8907 149.782 63.7919 151.848 63.3736 152.892C61.8745 152.819 69.3251 159.028 73.5361 161.369C74.7629 162.052 77.0508 162.337 76.874 159.522V139.014C76.8792 138.568 76.7669 138.127 76.5483 137.737C76.3324 137.346 76.0193 137.016 75.6387 136.78Z" fill="#B0B5BE"/>
<path fill-rule="evenodd" clip-rule="evenodd" d="M75.1905 137.815C73.5623 135.801 68.1217 132.708 64.4301 130.061C63.5009 129.386 61.8838 129.865 61.9035 130.984C62.1365 144.047 62.1842 150.058 62.945 152.616C63.5065 154.569 69.6685 158.672 73.1721 160.984C74.2136 161.685 75.6201 161.852 75.665 160.586C75.8615 155.093 75.665 142.351 75.665 139.093C75.6489 138.624 75.4793 138.174 75.1821 137.81L75.1905 137.815Z" fill="white"/>
<path d="M123.328 98.9354C123.328 118.653 138.41 132.428 157.002 132.428C170.757 132.428 182.614 125.635 187.641 112.804H174.646C171.136 119.786 164.876 123.088 157.002 123.088C143.912 123.088 134.426 113.748 134.426 98.9354C134.426 84.1232 143.912 74.8774 157.002 74.8774C164.876 74.8774 171.136 78.1795 174.646 85.161H187.641C182.614 72.3301 170.757 65.4429 157.002 65.4429C138.41 65.4429 123.328 79.3116 123.328 98.9354Z" fill="#0D111D"/>
<path d="M247.253 105.823C247.253 89.5009 235.491 79.0286 220.598 79.0286C205.706 79.0286 193.943 89.5009 193.943 105.823C193.943 122.144 205.231 132.711 220.124 132.711C235.111 132.711 247.253 122.144 247.253 105.823ZM204.947 105.823C204.947 94.0294 212.251 88.3687 220.409 88.3687C228.471 88.3687 236.155 94.0294 236.155 105.823C236.155 117.616 228.187 123.371 220.124 123.371C211.966 123.371 204.947 117.616 204.947 105.823Z" fill="#0D111D"/>
<path d="M255.097 131.862H265.911V79.8777H255.097V131.862ZM260.599 72.9905C264.393 72.9905 267.429 69.9715 267.429 66.1034C267.429 62.2352 264.393 59.2162 260.599 59.2162C256.71 59.2162 253.675 62.2352 253.675 66.1034C253.675 69.9715 256.71 72.9905 260.599 72.9905Z" fill="#0D111D"/>
<path d="M314.352 131.862H325.071V101.2C325.071 86.6705 315.87 79.0286 303.633 79.0286C297.373 79.0286 291.586 81.5759 288.077 85.8214V79.8777H277.263V131.862H288.077V102.803C288.077 93.2747 293.294 88.3687 301.262 88.3687C309.135 88.3687 314.352 93.2747 314.352 102.803V131.862Z" fill="#0D111D"/>
<path d="M346.833 96.4824V75.0661H358.785C367.227 75.0661 371.021 79.0286 371.021 85.8214C371.021 92.4256 367.227 96.4824 358.785 96.4824H346.833ZM382.119 85.8214C382.119 75.1605 374.436 66.292 358.785 66.292H336.019V131.862H346.833V105.256H358.785C375.954 105.256 382.119 95.1616 382.119 85.8214Z" fill="#0D111D"/>
<path d="M385.983 105.634C385.983 121.672 396.891 132.711 410.456 132.711C419.183 132.711 425.443 128.56 428.763 124.125V131.862H439.672V79.8777H428.763V87.4253C425.538 83.1798 419.467 79.0286 410.646 79.0286C396.891 79.0286 385.983 89.5952 385.983 105.634ZM428.763 105.823C428.763 117.05 421.08 123.371 412.922 123.371C404.859 123.371 397.081 116.861 397.081 105.634C397.081 94.4068 404.859 88.3687 412.922 88.3687C421.08 88.3687 428.763 94.6898 428.763 105.823Z" fill="#0D111D"/>
<path d="M471.614 119.503L456.911 79.8777H444.864L465.448 131.013L454.824 156.297H466.017L498.079 79.8777H486.886L471.614 119.503Z" fill="#0D111D"/>
<path d="M577.477 131.862H588.196V101.2C588.196 86.6705 578.9 79.0286 566.663 79.0286C559.075 79.0286 551.676 82.9911 548.451 89.3122C544.846 82.5194 537.922 79.0286 529.669 79.0286C523.409 79.0286 517.717 81.5759 514.207 85.8214V79.8777H503.394V131.862H514.207V102.803C514.207 93.2747 519.425 88.3687 527.393 88.3687C535.266 88.3687 540.483 93.2747 540.483 102.803V131.862H551.202V102.803C551.202 93.2747 556.419 88.3687 564.387 88.3687C572.26 88.3687 577.477 93.2747 577.477 102.803V131.862Z" fill="#0D111D"/>
<path d="M621.117 88.0857C629.18 88.0857 635.536 93.1803 635.725 101.2H606.794C607.932 92.9916 613.813 88.0857 621.117 88.0857ZM645.591 116.389H633.923C631.931 120.446 628.232 123.654 621.592 123.654C613.624 123.654 607.458 118.465 606.699 109.879H646.634C646.919 108.087 647.013 106.389 647.013 104.596C647.013 89.3122 636.484 79.0286 621.592 79.0286C606.13 79.0286 595.506 89.5009 595.506 105.823C595.506 122.144 606.604 132.711 621.592 132.711C634.397 132.711 642.65 125.446 645.591 116.389Z" fill="#0D111D"/>
<path d="M691.899 131.862H702.618V101.2C702.618 86.6705 693.416 79.0286 681.18 79.0286C674.919 79.0286 669.133 81.5759 665.623 85.8214V79.8777H654.81V131.862H665.623V102.803C665.623 93.2747 670.84 88.3687 678.808 88.3687C686.682 88.3687 691.899 93.2747 691.899 102.803V131.862Z" fill="#0D111D"/>
<path d="M715.273 117.427C715.273 127.994 721.059 131.862 730.355 131.862H738.892V122.899H732.252C727.699 122.899 726.181 121.295 726.181 117.427V88.6518H738.892V79.8777H726.181V66.9525H715.273V79.8777H709.107V88.6518H715.273V117.427Z" fill="#0D111D"/>
<path d="M785 117.333C784.43 98.558 754.93 104.407 754.93 93.9351C754.93 90.4443 757.965 88.0857 763.752 88.0857C769.633 88.0857 773.142 91.1991 773.522 95.7276H784.336C783.766 85.3497 775.988 79.0286 764.131 79.0286C751.799 79.0286 744.021 85.7271 744.021 94.0294C744.021 113.087 774.376 107.238 774.376 117.427C774.376 121.012 771.056 123.654 764.795 123.654C758.819 123.654 754.74 120.163 754.361 115.917H743.168C743.642 125.352 752.464 132.711 764.985 132.711C777.316 132.711 785 126.107 785 117.333Z" fill="#0D111D"/>
<defs>
<linearGradient id="paint0_linear_595_428" x1="34.583" y1="97.0727" x2="1.7548" y2="135.097" gradientUnits="userSpaceOnUse">
<stop/>
<stop offset="1" stop-color="#1C60DD" stop-opacity="0"/>
</linearGradient>
<linearGradient id="paint1_linear_595_428" x1="50.4869" y1="110.797" x2="17.6601" y2="148.829" gradientUnits="userSpaceOnUse">
<stop offset="0.19"/>
<stop offset="1" stop-color="#1C60DD" stop-opacity="0"/>
</linearGradient>
</defs>
</svg>
